<?xml version="1.0" encoding="UTF-8" standalone="no"?>
<!DOCTYPE svg PUBLIC "-//W3C//DTD SVG 1.1//EN" "http://www.w3.org/Graphics/SVG/1.1/DTD/svg11.dtd">
<svg width="100%" height="100%" viewBox="0 0 192 192" version="1.1" xmlns="http://www.w3.org/2000/svg" xmlns:xlink="http://www.w3.org/1999/xlink" xml:space="preserve" xmlns:serif="http://www.serif.com/" style="fill-rule:evenodd;clip-rule:evenodd;stroke-linejoin:round;stroke-miterlimit:2;">
    <path d="M192,108.409L113.586,108.524L103.003,41.256C103.003,41.256 101.999,38.674 100.001,38.248C98.003,37.822 96,39.561 96,39.561L77.406,58.188L63.07,30.244C63.07,30.244 61.238,27.937 59.483,27.827C57.727,27.717 55.84,29.753 55.84,29.753L47.537,45.514L27.131,7.421C27.131,7.421 25.95,4.752 23.079,5.238C20.209,5.725 20.122,8.71 20.122,8.71L0,135.757L34.009,154.782L33.923,192L192,192L192,108.409ZM148.162,176.286L148.162,159.409L142.743,159.409L142.743,176.045C142.743,176.482 142.726,176.936 142.692,177.408C142.657,177.88 142.554,178.317 142.381,178.72C142.208,179.122 141.927,179.45 141.535,179.703C141.144,179.956 140.592,180.083 139.879,180.083C139.234,180.083 138.711,179.979 138.308,179.772C137.906,179.565 137.589,179.283 137.359,178.927C137.129,178.57 136.968,178.139 136.876,177.632C136.784,177.126 136.738,176.574 136.738,175.976L136.738,174.871L131.837,174.871L131.837,177.011C131.837,178.369 132.067,179.525 132.527,180.48C132.987,181.435 133.597,182.217 134.356,182.827C135.116,183.437 135.979,183.885 136.945,184.173C137.911,184.461 138.912,184.604 139.948,184.604C141.789,184.604 143.25,184.323 144.331,183.759C145.413,183.195 146.241,182.493 146.816,181.653C147.391,180.814 147.76,179.91 147.921,178.944C148.082,177.978 148.162,177.092 148.162,176.286ZM156.618,175.872L151.372,175.872C151.349,177.391 151.625,178.702 152.2,179.807C152.776,180.911 153.552,181.82 154.53,182.534C155.508,183.247 156.636,183.77 157.913,184.104C159.19,184.438 160.507,184.604 161.865,184.604C163.544,184.604 165.023,184.409 166.3,184.018C167.577,183.627 168.647,183.08 169.51,182.378C170.372,181.676 171.023,180.842 171.46,179.876C171.897,178.91 172.115,177.863 172.115,176.735C172.115,175.354 171.822,174.221 171.235,173.335C170.649,172.45 169.953,171.742 169.147,171.213C168.342,170.684 167.531,170.298 166.714,170.056C165.897,169.815 165.259,169.648 164.798,169.556C163.257,169.165 162.008,168.843 161.054,168.59C160.099,168.337 159.351,168.083 158.81,167.83C158.269,167.577 157.907,167.301 157.723,167.002C157.539,166.703 157.447,166.312 157.447,165.828C157.447,165.299 157.562,164.862 157.792,164.517C158.022,164.172 158.315,163.884 158.672,163.654C159.029,163.424 159.426,163.263 159.863,163.171C160.3,163.079 160.737,163.033 161.174,163.033C161.842,163.033 162.457,163.09 163.021,163.205C163.585,163.32 164.085,163.516 164.522,163.792C164.959,164.068 165.31,164.448 165.575,164.931C165.84,165.414 165.995,166.024 166.041,166.76L171.287,166.76C171.287,165.334 171.017,164.12 170.476,163.119C169.935,162.118 169.205,161.296 168.284,160.651C167.364,160.007 166.311,159.541 165.126,159.253C163.941,158.966 162.704,158.822 161.416,158.822C160.311,158.822 159.207,158.972 158.102,159.271C156.998,159.57 156.009,160.03 155.134,160.651C154.26,161.272 153.552,162.049 153.012,162.981C152.471,163.913 152.2,165.012 152.2,166.277C152.2,167.405 152.413,168.365 152.839,169.159C153.265,169.953 153.823,170.614 154.513,171.144C155.203,171.673 155.986,172.104 156.86,172.438C157.734,172.772 158.632,173.054 159.552,173.284C160.449,173.537 161.335,173.767 162.21,173.974C163.084,174.181 163.866,174.423 164.557,174.699C165.247,174.975 165.805,175.32 166.231,175.734C166.656,176.148 166.869,176.689 166.869,177.356C166.869,177.978 166.708,178.49 166.386,178.892C166.064,179.295 165.661,179.611 165.178,179.841C164.695,180.072 164.177,180.227 163.625,180.307C163.073,180.388 162.555,180.428 162.072,180.428C161.358,180.428 160.668,180.342 160.001,180.169C159.334,179.997 158.753,179.732 158.258,179.375C157.763,179.019 157.366,178.553 157.067,177.978C156.768,177.402 156.618,176.701 156.618,175.872ZM83.868,117.542L110.479,117.542L110.479,123.134L90.339,123.134L90.339,132.815L108.977,132.815L108.977,138.096L90.339,138.096L90.339,148.916L110.841,148.916L110.841,154.508L83.868,154.508L83.868,117.542ZM152.984,117.542L182.908,117.542L182.908,123.134L171.156,123.134L171.156,154.508L164.684,154.508L164.684,123.134L152.984,123.134L152.984,117.542ZM46.23,117.542L53.064,117.542L69.941,144.774L70.045,144.774L70.045,117.542L76.206,117.542L76.206,154.508L69.372,154.508L52.546,127.327L52.391,127.327L52.391,154.508L46.23,154.508L46.23,117.542ZM116.51,117.542L124.224,117.542L132.611,130.589L141.361,117.542L148.609,117.542L136.391,135.352L149.489,154.508L141.62,154.508L132.404,140.374L123.034,154.508L115.63,154.508L128.728,135.352L116.51,117.542Z"/>
</svg>
